HIERARCHY
ROOT root
{
	OFFSET 0.000000 0.000000 0.000000
	CHANNELS 6 Xposition Yposition Zposition Zrotation Yrotation Xrotation
	JOINT lhip
	{
		OFFSET 0.058581 -0.082280 -0.017664
		CHANNELS 3 Zrotation Yrotation Xrotation
		JOINT lknee
		{
			OFFSET 0.043451 -0.386469 0.008037
			CHANNELS 3 Zrotation Yrotation Xrotation
			JOINT lankle
			{
				OFFSET -0.014790 -0.426874 -0.037428
				CHANNELS 3 Zrotation Yrotation Xrotation
				JOINT ltoe
				{
					OFFSET 0.041054 -0.060286 0.122042
					CHANNELS 3 Zrotation Yrotation Xrotation
					End Site
					{
						OFFSET 0.000000 0.000000 0.000000
					}
				}
			}
		}
	}
	JOINT rhip
	{
		OFFSET -0.060310 -0.090513 -0.013543
		CHANNELS 3 Zrotation Yrotation Xrotation
		JOINT rknee
		{
			OFFSET -0.043257 -0.383688 -0.004843
			CHANNELS 3 Zrotation Yrotation Xrotation
			JOINT rankle
			{
				OFFSET 0.019056 -0.420046 -0.034562
				CHANNELS 3 Zrotation Yrotation Xrotation
				JOINT rtoe
				{
					OFFSET -0.034840 -0.062106 0.130323
					CHANNELS 3 Zrotation Yrotation Xrotation
					End Site
					{
						OFFSET 0.000000 0.000000 0.000000
					}
				}
			}
		}
	}
	JOINT lowerback
	{
		OFFSET 0.004439 0.124404 -0.038385
		CHANNELS 3 Zrotation Yrotation Xrotation
		JOINT upperback
		{
			OFFSET 0.004488 0.137956 0.026820
			CHANNELS 3 Zrotation Yrotation Xrotation
			JOINT chest
			{
				OFFSET -0.002265 0.056032 0.002855
				CHANNELS 3 Zrotation Yrotation Xrotation
				JOINT lowerneck
				{
					OFFSET -0.013390 0.211636 -0.033468
					CHANNELS 3 Zrotation Yrotation Xrotation
					JOINT upperneck
					{
						OFFSET 0.010113 0.088937 0.050410
						CHANNELS 3 Zrotation Yrotation Xrotation
						End Site
						{
							OFFSET 0.000000 0.000000 0.000000
						}
					}
				}
				JOINT lclavicle
				{
					OFFSET 0.071702 0.114000 -0.018898
					CHANNELS 3 Zrotation Yrotation Xrotation
					JOINT lshoulder
					{
						OFFSET 0.122921 0.045205 -0.019046
						CHANNELS 3 Zrotation Yrotation Xrotation
						JOINT lelbow
						{
							OFFSET 0.255332 -0.015649 -0.022946
							CHANNELS 3 Zrotation Yrotation Xrotation
							JOINT lwrist
							{
								OFFSET 0.265709 0.012698 -0.007375
								CHANNELS 3 Zrotation Yrotation Xrotation
								End Site
								{
									OFFSET 0.000000 0.000000 0.000000
								}
							}
						}
					}
				}
				JOINT rclavicle
				{
					OFFSET -0.082954 0.112472 -0.023707
					CHANNELS 3 Zrotation Yrotation Xrotation
					JOINT rshoulder
					{
						OFFSET -0.113228 0.046853 -0.008472
						CHANNELS 3 Zrotation Yrotation Xrotation
						JOINT relbow
						{
							OFFSET -0.260127 -0.014369 -0.031269
							CHANNELS 3 Zrotation Yrotation Xrotation
							JOINT rwrist
							{
								OFFSET -0.269108 0.006794 -0.006027
								CHANNELS 3 Zrotation Yrotation Xrotation
								End Site
								{
									OFFSET 0.000000 0.000000 0.000000
								}
							}
						}
					}
				}
			}
		}
	}
}
MOTION
Frames: 7
Frame Time: 0.033333
-1.632720 1.671689 1.036137 58.289125 1.197328 84.252043 1.653135 4.239609 8.448374 -4.036225 -0.297547 -0.783112 4.454056 13.871538 -7.761162 0.000000 -0.000000 0.000000 0.595647 -3.993969 -1.071766 1.863140 0.204344 15.032288 0.628273 -11.000625 -11.685945 0.000000 -0.000000 0.000000 0.506196 -2.557023 6.119221 -0.471176 -4.379242 4.388141 -1.091503 -2.612367 1.868528 -2.705658 -9.856154 -0.533057 8.804759 2.203937 4.264809 -22.438456 -2.178431 5.609966 -56.746602 -9.577510 15.188681 -2.346209 -66.588081 3.319010 12.352888 6.684286 -45.358064 16.025710 0.642280 4.135305 50.948083 -5.074709 17.141192 -1.803437 62.381006 13.099550 18.761904 3.368142 -3.904976 
-1.633121 1.672258 1.036213 58.283753 1.208220 84.391440 1.622337 4.199778 8.181541 -4.042493 -0.304728 -0.639387 4.554010 13.890486 -7.757436 0.000000 -0.000000 0.000000 0.626379 -3.958954 -1.338312 1.835368 0.226596 15.158986 0.638284 -11.034537 -11.693125 0.000000 -0.000000 0.000000 0.646533 -2.645057 6.440187 -0.504327 -4.360253 4.036738 -1.114720 -2.677293 1.993138 -2.749273 -9.986256 -0.891291 8.688746 2.315610 4.576291 -22.381090 -2.231395 5.368675 -56.849801 -9.516263 15.214398 -2.008249 -66.620158 3.510567 12.402368 6.730268 -45.701553 15.814329 0.809133 4.101734 51.108998 -5.154580 17.254280 -2.376088 62.723401 12.827990 19.198436 3.513498 -4.948700 
-1.634002 1.673017 1.036376 58.156933 1.177615 84.593383 1.551285 4.175655 7.828613 -4.055638 -0.221959 -0.492003 4.609085 13.934820 -7.775838 0.000000 -0.000000 0.000000 0.667956 -3.802909 -1.759553 1.764664 0.244318 15.369886 0.649108 -11.060609 -11.695345 0.000000 -0.000000 0.000000 0.672889 -2.682039 6.816260 -0.543978 -4.192902 3.771326 -1.043698 -2.745070 1.956170 -2.778251 -10.075817 -1.128774 8.741718 2.438992 4.572105 -22.391504 -2.297109 5.347283 -56.887349 -9.575746 15.202985 -1.758156 -66.623597 3.223135 12.530682 6.706115 -45.574856 15.708319 0.848539 4.011545 51.107713 -5.200036 17.320116 -2.513903 63.006907 12.618260 19.548266 3.500549 -5.135619 
-1.635554 1.674293 1.036575 57.957768 1.108916 84.922379 1.430532 4.153166 7.283286 -4.090978 -0.099499 -0.287013 4.713552 14.012930 -7.804297 0.000000 -0.000000 0.000000 0.697411 -3.560227 -2.402363 1.672700 0.271773 15.647126 0.731458 -11.100951 -11.667728 0.000000 -0.000000 0.000000 0.631287 -2.723490 7.420579 -0.604208 -3.897034 3.333214 -0.919411 -2.799604 1.977882 -2.763527 -10.109902 -1.583320 8.773957 2.507026 4.637313 -22.381730 -2.376794 5.282442 -56.946904 -9.773900 15.273160 -1.621936 -66.531532 2.923039 12.842936 6.715964 -45.364516 15.641952 0.794029 3.759165 51.054871 -5.271696 17.515702 -2.472489 63.335375 12.564718 19.700174 3.512666 -5.271637 
-1.636618 1.675219 1.036616 57.886921 1.078087 85.120999 1.366712 4.129084 6.929769 -4.110482 -0.048480 -0.145764 4.768982 14.057838 -7.802755 0.000000 -0.000000 0.000000 0.711039 -3.464666 -2.797917 1.630888 0.293996 15.814856 0.742665 -11.133467 -11.640266 0.000000 -0.000000 0.000000 0.665044 -2.775149 7.712234 -0.634766 -3.856562 3.254172 -0.949829 -2.773288 2.010404 -2.711859 -10.035699 -1.891904 8.797052 2.523954 4.592754 -22.337778 -2.475110 5.201395 -56.911791 -9.841927 15.322676 -1.572515 -66.604597 2.986683 12.648132 6.943164 -45.665975 15.640690 0.854455 3.679867 51.070817 -5.209745 17.563842 -2.549454 63.535918 12.516197 19.790900 3.541492 -5.430279 
-1.638224 1.676625 1.036648 57.797290 1.036048 85.391946 1.277119 4.080142 6.401573 -4.136779 0.079481 0.094807 4.818412 14.084857 -7.811760 0.000000 -0.000000 0.000000 0.720016 -3.321320 -3.367451 1.567833 0.278339 16.076495 0.741066 -11.141243 -11.596224 0.000000 -0.000000 0.000000 0.738313 -2.860392 8.037431 -0.665326 -3.885331 3.304838 -1.063740 -2.662541 2.074482 -2.590215 -9.837215 -2.279998 8.819215 2.498099 4.468564 -22.250633 -2.621341 5.105942 -56.896367 -10.043647 15.286857 -1.176721 -66.713627 2.665636 12.565144 6.974817 -45.768337 15.649491 1.005286 3.660446 51.138302 -5.045010 17.562781 -2.761082 63.806804 12.404067 19.757656 3.716015 -5.584030 
-1.639717 1.678181 1.036731 57.763211 1.015814 85.693762 1.180160 3.994500 5.789809 -4.139873 0.196286 0.409089 4.878360 14.102810 -7.838510 0.000000 -0.000000 0.000000 0.736347 -3.231994 -3.978131 1.498324 0.234589 16.349337 0.720834 -11.135575 -11.564857 0.000000 -0.000000 0.000000 0.844127 -2.877704 8.508076 -0.687771 -3.854735 3.167205 -1.050674 -2.708009 2.082436 -2.666567 -9.820216 -2.360232 8.808991 2.595233 4.303266 -22.282312 -2.757492 5.097032 -56.950546 -10.249825 15.186066 -0.605911 -66.788731 2.071627 12.962605 6.894239 -45.449721 15.556684 1.148424 3.738344 51.138144 -4.972003 17.541398 -2.772173 64.129539 12.378246 19.155914 4.073812 -5.634264 
